<?xml version="1.0" encoding="UTF-8"?>
<!DOCTYPE svg PUBLIC "-//W3C//DTD SVG 1.1//EN" "http://www.w3.org/Graphics/SVG/1.1/DTD/svg11.dtd">
<svg xmlns="http://www.w3.org/2000/svg" version="1.1" width="626px" height="742px" style="shape-rendering:geometricPrecision; text-rendering:geometricPrecision; image-rendering:optimizeQuality; fill-rule:evenodd; clip-rule:evenodd" xmlns:xlink="http://www.w3.org/1999/xlink">
<g><path style="opacity:1" fill="#000000" d="M -0.5,-0.5 C 208.167,-0.5 416.833,-0.5 625.5,-0.5C 625.5,246.833 625.5,494.167 625.5,741.5C 416.833,741.5 208.167,741.5 -0.5,741.5C -0.5,494.167 -0.5,246.833 -0.5,-0.5 Z"/></g>
<g><path style="opacity:1" fill="#8a8a8a" d="M 256.5,287.5 C 272.338,286.173 288.338,286.173 304.5,287.5C 304.376,288.107 304.043,288.44 303.5,288.5C 288.009,287.504 272.342,287.17 256.5,287.5 Z"/></g>
<g><path style="opacity:1" fill="#f7f7f7" d="M 256.5,287.5 C 272.342,287.17 288.009,287.504 303.5,288.5C 291.526,306.149 279.526,323.815 267.5,341.5C 276.141,342.498 284.808,342.831 293.5,342.5C 289.797,352.913 285.797,363.246 281.5,373.5C 276.868,374.328 272.202,374.828 267.5,375C 259.667,379.5 251.833,384 244,388.5C 243.831,381.809 243.331,375.142 242.5,368.5C 224.499,357.147 217.333,340.814 221,319.5C 226.71,301.953 238.544,291.286 256.5,287.5 Z"/></g>
<g><path style="opacity:1" fill="#f6f6f6" d="M 332.5,374.5 C 321.5,373.833 310.5,373.167 299.5,372.5C 310.857,357.133 321.857,341.467 332.5,325.5C 323.682,324.507 314.682,324.173 305.5,324.5C 305.5,323.5 305.5,322.5 305.5,321.5C 310.179,309.788 314.846,298.121 319.5,286.5C 336.445,283.904 352.111,287.071 366.5,296C 380.515,309.053 385.015,324.886 380,343.5C 376.815,352.687 371.315,360.187 363.5,366C 361.783,367.559 359.783,368.392 357.5,368.5C 357.83,375.2 357.497,381.866 356.5,388.5C 348.201,384.169 340.201,379.503 332.5,374.5 Z"/></g>
<g><path style="opacity:1" fill="#aaaaaa" d="M 305.5,321.5 C 305.5,322.5 305.5,323.5 305.5,324.5C 314.682,324.173 323.682,324.507 332.5,325.5C 323.167,325.5 313.833,325.5 304.5,325.5C 304.232,323.901 304.566,322.568 305.5,321.5 Z"/></g>
<g><path style="opacity:1" fill="#acacac" d="M 299.5,372.5 C 310.5,373.167 321.5,373.833 332.5,374.5C 321.147,374.832 309.814,374.499 298.5,373.5C 298.624,372.893 298.957,372.56 299.5,372.5 Z"/></g>
</svg>
