<svg xmlns="http://www.w3.org/2000/svg" xmlns:v="https://svgstorm.com"
viewBox = "149 69 203 203"
width="203"
height="203">
<g fill="None" fill-opacity="0.0" stroke="#000000" stroke-opacity="0.00" stroke-width="0.3"><path d="
M 0.00 346.00 
L 520.00 346.00
L 520.00 0.00
L 0.00 0.00
L 0.00 346.00
M 241.00 109.00 
C 247.10 108.98 255.15 106.95 262.00 108.00
C 263.04 108.16 264.11 108.35 265.00 109.00
C 267.04 110.48 266.32 111.50 266.00 113.00
C 263.96 122.68 251.94 131.85 246.23 140.23 C 240.52 148.61 232.49 159.58 225.00 167.00
C 223.92 168.45 221.33 171.30 224.00 172.00
C 228.35 171.40 232.38 171.11 237.00 172.00 C 241.62 172.89 247.57 170.50 252.00 172.00
C 258.59 174.23 251.16 188.05 247.74 192.74 C 244.32 197.44 243.13 210.62 237.23 214.23 C 231.33 217.84 215.22 212.70 209.25 218.25 C 203.27 223.80 196.88 227.14 190.00 231.00
C 189.05 231.53 187.82 231.53 187.00 232.00
C 181.87 234.94 174.95 240.44 175.93 230.93 C 176.90 221.42 179.15 218.90 180.00 210.00
C 166.10 204.07 157.63 189.03 157.00 174.00
C 156.60 168.91 156.55 163.08 157.00 158.00
C 159.18 133.21 176.12 115.23 200.00 110.00
C 201.64 109.64 203.84 109.23 206.00 109.00
C 217.29 107.78 229.26 107.90 241.00 109.00
M 305.00 109.00 
C 319.30 111.52 340.89 120.18 343.92 137.08 C 346.95 153.97 351.75 182.97 339.00 196.00
C 338.75 196.26 339.00 197.00 339.00 197.00
C 337.59 198.92 334.94 202.69 333.00 204.00
C 332.09 204.61 330.74 204.50 330.00 205.00
C 323.96 213.99 311.09 215.20 300.00 215.00 C 288.91 214.80 272.81 214.00 262.92 217.92 C 253.03 221.83 248.87 230.63 237.32 232.32 C 225.77 234.01 237.77 217.35 242.25 211.25 C 246.74 205.16 255.48 194.52 260.00 188.00
C 261.46 185.89 262.44 183.99 264.00 182.00
C 270.31 173.92 278.47 164.61 284.00 155.00
C 274.23 154.59 262.02 156.13 252.00 154.00
C 260.75 139.65 265.24 121.28 275.00 109.00
C 278.25 105.61 295.02 107.80 300.00 108.00
C 301.93 108.08 303.71 108.77 305.00 109.00 Z"/>
</g>
<g fill="None" fill-opacity="0.0" stroke="#D8D8D7" stroke-opacity="0.16" stroke-width="0.3"><path d="
M 206.00 109.00 
C 224.62 110.25 246.45 110.98 265.00 109.00
C 264.11 108.35 263.04 108.16 262.00 108.00
C 255.89 107.89 247.91 109.65 241.00 109.00
C 229.26 107.90 217.29 107.78 206.00 109.00 Z"/>
</g>
<g fill="None" fill-opacity="0.0" stroke="#808080" stroke-opacity="0.01" stroke-width="0.3"><path d="
M 241.00 109.00 
C 247.91 109.65 255.89 107.89 262.00 108.00
C 255.15 106.95 247.10 108.98 241.00 109.00 Z"/>
</g>
<g fill="None" fill-opacity="0.0" stroke="#7D7D7D" stroke-opacity="0.03" stroke-width="0.3"><path d="
M 275.00 109.00 
C 275.50 108.95 276.00 109.00 276.00 109.00
C 283.97 109.00 292.81 108.41 300.00 108.00
C 295.02 107.80 278.25 105.61 275.00 109.00 Z"/>
</g>
<g fill="None" fill-opacity="0.0" stroke="#D1D1D1" stroke-opacity="0.34" stroke-width="0.3"><path d="
M 276.00 109.00 
C 281.76 113.27 298.64 109.37 305.00 109.00
C 303.71 108.77 301.93 108.08 300.00 108.00
C 292.81 108.41 283.97 109.00 276.00 109.00 Z"/>
</g>
<g fill="None" fill-opacity="0.0" stroke="#F2F2F1" stroke-opacity="0.71" stroke-width="0.3"><path d="
M 200.00 110.00 
C 206.29 109.93 215.56 111.32 222.00 111.00 C 228.44 110.68 239.49 110.41 245.00 111.00 C 250.51 111.59 264.30 108.17 266.00 113.00
C 266.32 111.50 267.04 110.48 265.00 109.00
C 246.45 110.98 224.62 110.25 206.00 109.00
C 203.84 109.23 201.64 109.64 200.00 110.00 Z"/>
</g>
<g fill="None" fill-opacity="0.0" stroke="#E8E8E8" stroke-opacity="0.84" stroke-width="0.3"><path d="
M 264.00 182.00 
C 262.80 184.85 261.98 186.46 260.00 188.00
C 255.48 194.52 246.74 205.16 242.25 211.25 C 237.77 217.35 225.77 234.01 237.32 232.32 C 248.87 230.63 253.03 221.83 262.92 217.92 C 272.81 214.00 288.91 214.80 300.00 215.00 C 311.09 215.20 323.96 213.99 330.00 205.00
C 330.38 204.44 336.96 193.86 339.00 196.00
C 351.75 182.97 346.95 153.97 343.92 137.08 C 340.89 120.18 319.30 111.52 305.00 109.00
C 298.64 109.37 281.76 113.27 276.00 109.00
C 276.00 109.00 275.50 108.95 275.00 109.00
C 265.24 121.28 260.75 139.65 252.00 154.00
C 262.02 156.13 274.23 154.59 284.00 155.00
C 278.47 164.61 270.31 173.92 264.00 182.00
M 240.00 225.00 
C 255.61 198.62 278.33 175.47 295.00 150.00
C 283.67 150.00 272.33 150.00 261.00 150.00
C 264.25 139.12 270.10 134.01 273.77 122.77 C 277.44 111.53 295.72 114.47 307.00 115.00 C 318.28 115.53 325.31 121.84 332.92 130.08 C 340.52 138.33 341.14 151.62 341.00 163.00 C 340.86 174.38 340.25 185.85 332.75 194.75 C 325.25 203.65 317.66 207.21 306.33 209.33 C 295.00 211.45 277.10 207.99 266.00 210.00 C 254.90 212.01 250.29 221.91 240.00 225.00 Z"/>
</g>
<g fill="None" fill-opacity="0.0" stroke="#E7E7E7" stroke-opacity="0.85" stroke-width="0.3"><path d="
M 157.00 158.00 
C 157.04 162.40 157.08 169.66 157.00 174.00
C 157.63 189.03 166.10 204.07 180.00 210.00
C 179.15 218.90 176.90 221.42 175.93 230.93 C 174.95 240.44 181.87 234.94 187.00 232.00
C 187.24 231.70 186.39 231.31 188.09 230.08 C 189.79 228.85 190.22 230.94 190.00 231.00
C 196.88 227.14 203.27 223.80 209.25 218.25 C 215.22 212.70 231.33 217.84 237.23 214.23 C 243.13 210.62 244.32 197.44 247.74 192.74 C 251.16 188.05 258.59 174.23 252.00 172.00
C 242.86 176.59 229.69 172.72 219.00 174.00
C 218.49 172.60 219.81 171.85 221.00 172.00
C 221.98 169.48 223.13 168.85 225.00 167.00
C 232.49 159.58 240.52 148.61 246.23 140.23 C 251.94 131.85 263.96 122.68 266.00 113.00
C 264.30 108.17 250.51 111.59 245.00 111.00 C 239.49 110.41 228.44 110.68 222.00 111.00 C 215.56 111.32 206.29 109.93 200.00 110.00
C 176.12 115.23 159.18 133.21 157.00 158.00
M 212.00 176.00 
C 214.20 179.88 227.00 175.44 231.00 177.00 C 235.00 178.56 247.87 174.39 248.00 179.00
C 248.30 189.51 234.00 199.21 234.00 210.00
C 212.59 204.68 198.55 220.21 182.00 229.00
C 183.42 221.62 185.70 214.46 187.00 207.00
C 157.64 195.94 156.35 154.05 173.00 132.00
C 174.98 129.33 177.39 126.94 180.00 125.00
C 202.29 108.43 232.27 117.11 259.00 115.00
C 243.71 135.60 226.54 155.19 212.00 176.00 Z"/>
</g>
<g fill="None" fill-opacity="0.0" stroke="#0D0D0F" stroke-opacity="1.00" stroke-width="0.3"><path d="
M 180.00 125.00 
C 177.87 126.86 174.81 129.92 173.00 132.00
C 156.35 154.05 157.64 195.94 187.00 207.00
C 185.70 214.46 183.42 221.62 182.00 229.00
C 198.55 220.21 212.59 204.68 234.00 210.00
C 234.00 199.21 248.30 189.51 248.00 179.00
C 243.72 176.60 233.64 178.79 229.00 178.00 C 224.36 177.21 211.86 180.01 212.00 176.00
C 226.54 155.19 243.71 135.60 259.00 115.00
C 232.27 117.11 202.29 108.43 180.00 125.00 Z"/>
</g>
<g fill="None" fill-opacity="0.0" stroke="#0E0E10" stroke-opacity="1.00" stroke-width="0.3"><path d="
M 240.00 225.00 
C 250.29 221.91 254.90 212.01 266.00 210.00 C 277.10 207.99 295.00 211.45 306.33 209.33 C 317.66 207.21 325.25 203.65 332.75 194.75 C 340.25 185.85 340.86 174.38 341.00 163.00 C 341.14 151.62 340.52 138.33 332.92 130.08 C 325.31 121.84 318.28 115.53 307.00 115.00 C 295.72 114.47 277.44 111.53 273.77 122.77 C 270.10 134.01 264.25 139.12 261.00 150.00
C 272.33 150.00 283.67 150.00 295.00 150.00
C 278.33 175.47 255.61 198.62 240.00 225.00 Z"/>
</g>
<g fill="None" fill-opacity="0.0" stroke="#6F6F70" stroke-opacity="1.00" stroke-width="0.3"><path d="
M 173.00 132.00 
C 174.81 129.92 177.87 126.86 180.00 125.00
C 177.39 126.94 174.98 129.33 173.00 132.00 Z"/>
</g>
<g fill="None" fill-opacity="0.0" stroke="#565656" stroke-opacity="0.18" stroke-width="0.3"><path d="
M 157.00 174.00 
C 157.08 169.66 157.04 162.40 157.00 158.00
C 156.55 163.08 156.60 168.91 157.00 174.00 Z"/>
</g>
<g fill="None" fill-opacity="0.0" stroke="#C6C6C6" stroke-opacity="0.11" stroke-width="0.3"><path d="
M 221.00 172.00 
C 221.94 171.78 223.04 172.13 224.00 172.00
C 221.33 171.30 223.92 168.45 225.00 167.00
C 223.13 168.85 221.98 169.48 221.00 172.00 Z"/>
</g>
<g fill="None" fill-opacity="0.0" stroke="#EEEEEE" stroke-opacity="0.48" stroke-width="0.3"><path d="
M 224.00 172.00 
C 223.04 172.13 221.94 171.78 221.00 172.00
C 219.81 171.85 218.49 172.60 219.00 174.00
C 229.69 172.72 242.86 176.59 252.00 172.00
C 247.57 170.50 241.62 172.89 237.00 172.00 C 232.38 171.11 228.35 171.40 224.00 172.00 Z"/>
</g>
<g fill="None" fill-opacity="0.0" stroke="#808082" stroke-opacity="1.00" stroke-width="0.3"><path d="
M 248.00 179.00 
C 247.87 174.39 235.00 178.56 231.00 177.00 C 227.00 175.44 214.20 179.88 212.00 176.00
C 211.86 180.01 224.36 177.21 229.00 178.00 C 233.64 178.79 243.72 176.60 248.00 179.00 Z"/>
</g>
<g fill="None" fill-opacity="0.0" stroke="#D4D4D4" stroke-opacity="0.37" stroke-width="0.3"><path d="
M 260.00 188.00 
C 261.98 186.46 262.80 184.85 264.00 182.00
C 262.44 183.99 261.46 185.89 260.00 188.00 Z"/>
</g>
<g fill="None" fill-opacity="0.0" stroke="#E3E3E3" stroke-opacity="0.62" stroke-width="0.3"><path d="
M 330.00 205.00 
C 330.74 204.50 332.09 204.61 333.00 204.00
C 334.60 202.15 335.04 199.11 339.00 197.00
C 339.00 197.00 338.75 196.26 339.00 196.00
C 336.96 193.86 330.38 204.44 330.00 205.00 Z"/>
</g>
<g fill="None" fill-opacity="0.0" stroke="#C6C6C6" stroke-opacity="0.27" stroke-width="0.3"><path d="
M 333.00 204.00 
C 334.94 202.69 337.59 198.92 339.00 197.00
C 335.04 199.11 334.60 202.15 333.00 204.00 Z"/>
</g>
<g fill="None" fill-opacity="0.0" stroke="#D6D6D6" stroke-opacity="0.52" stroke-width="0.3"><path d="
M 187.00 232.00 
C 187.82 231.53 189.05 231.53 190.00 231.00
C 190.22 230.94 189.79 228.85 188.09 230.08 C 186.39 231.31 187.24 231.70 187.00 232.00 Z"/>
</g>
<g fill="#000000" fill-opacity="0.00" stroke="None">
<path d="
M 0.00 346.00 
L 520.00 346.00
L 520.00 0.00
L 0.00 0.00
L 0.00 346.00
M 241.00 109.00 
C 247.10 108.98 255.15 106.95 262.00 108.00
C 263.04 108.16 264.11 108.35 265.00 109.00
C 267.04 110.48 266.32 111.50 266.00 113.00
C 263.96 122.68 251.94 131.85 246.23 140.23 C 240.52 148.61 232.49 159.58 225.00 167.00
C 223.92 168.45 221.33 171.30 224.00 172.00
C 228.35 171.40 232.38 171.11 237.00 172.00 C 241.62 172.89 247.57 170.50 252.00 172.00
C 258.59 174.23 251.16 188.05 247.74 192.74 C 244.32 197.44 243.13 210.62 237.23 214.23 C 231.33 217.84 215.22 212.70 209.25 218.25 C 203.27 223.80 196.88 227.14 190.00 231.00
C 189.05 231.53 187.82 231.53 187.00 232.00
C 181.87 234.94 174.95 240.44 175.93 230.93 C 176.90 221.42 179.15 218.90 180.00 210.00
C 166.10 204.07 157.63 189.03 157.00 174.00
C 156.60 168.91 156.55 163.08 157.00 158.00
C 159.18 133.21 176.12 115.23 200.00 110.00
C 201.64 109.64 203.84 109.23 206.00 109.00
C 217.29 107.78 229.26 107.90 241.00 109.00
M 305.00 109.00 
C 319.30 111.52 340.89 120.18 343.92 137.08 C 346.95 153.97 351.75 182.97 339.00 196.00
C 338.75 196.26 339.00 197.00 339.00 197.00
C 337.59 198.92 334.94 202.69 333.00 204.00
C 332.09 204.61 330.74 204.50 330.00 205.00
C 323.96 213.99 311.09 215.20 300.00 215.00 C 288.91 214.80 272.81 214.00 262.92 217.92 C 253.03 221.83 248.87 230.63 237.32 232.32 C 225.77 234.01 237.77 217.35 242.25 211.25 C 246.74 205.16 255.48 194.52 260.00 188.00
C 261.46 185.89 262.44 183.99 264.00 182.00
C 270.31 173.92 278.47 164.61 284.00 155.00
C 274.23 154.59 262.02 156.13 252.00 154.00
C 260.75 139.65 265.24 121.28 275.00 109.00
C 278.25 105.61 295.02 107.80 300.00 108.00
C 301.93 108.08 303.71 108.77 305.00 109.00 Z"/>
</g>
<g fill="#D8D8D7" fill-opacity="0.16" stroke="None">
<path d="
M 206.00 109.00 
C 224.62 110.25 246.45 110.98 265.00 109.00
C 264.11 108.35 263.04 108.16 262.00 108.00
C 255.89 107.89 247.91 109.65 241.00 109.00
C 229.26 107.90 217.29 107.78 206.00 109.00 Z"/>
</g>
<g fill="#808080" fill-opacity="0.01" stroke="None">
<path d="
M 241.00 109.00 
C 247.91 109.65 255.89 107.89 262.00 108.00
C 255.15 106.95 247.10 108.98 241.00 109.00 Z"/>
</g>
<g fill="#7D7D7D" fill-opacity="0.03" stroke="None">
<path d="
M 275.00 109.00 
C 275.50 108.95 276.00 109.00 276.00 109.00
C 283.97 109.00 292.81 108.41 300.00 108.00
C 295.02 107.80 278.25 105.61 275.00 109.00 Z"/>
</g>
<g fill="#D1D1D1" fill-opacity="0.34" stroke="None">
<path d="
M 276.00 109.00 
C 281.76 113.27 298.64 109.37 305.00 109.00
C 303.71 108.77 301.93 108.08 300.00 108.00
C 292.81 108.41 283.97 109.00 276.00 109.00 Z"/>
</g>
<g fill="#F2F2F1" fill-opacity="0.71" stroke="None">
<path d="
M 200.00 110.00 
C 206.29 109.93 215.56 111.32 222.00 111.00 C 228.44 110.68 239.49 110.41 245.00 111.00 C 250.51 111.59 264.30 108.17 266.00 113.00
C 266.32 111.50 267.04 110.48 265.00 109.00
C 246.45 110.98 224.62 110.25 206.00 109.00
C 203.84 109.23 201.64 109.64 200.00 110.00 Z"/>
</g>
<g fill="#E8E8E8" fill-opacity="0.84" stroke="None">
<path d="
M 264.00 182.00 
C 262.80 184.85 261.98 186.46 260.00 188.00
C 255.48 194.52 246.74 205.16 242.25 211.25 C 237.77 217.35 225.77 234.01 237.32 232.32 C 248.87 230.63 253.03 221.83 262.92 217.92 C 272.81 214.00 288.91 214.80 300.00 215.00 C 311.09 215.20 323.96 213.99 330.00 205.00
C 330.38 204.44 336.96 193.86 339.00 196.00
C 351.75 182.97 346.95 153.97 343.92 137.08 C 340.89 120.18 319.30 111.52 305.00 109.00
C 298.64 109.37 281.76 113.27 276.00 109.00
C 276.00 109.00 275.50 108.95 275.00 109.00
C 265.24 121.28 260.75 139.65 252.00 154.00
C 262.02 156.13 274.23 154.59 284.00 155.00
C 278.47 164.61 270.31 173.92 264.00 182.00
M 240.00 225.00 
C 255.61 198.62 278.33 175.47 295.00 150.00
C 283.67 150.00 272.33 150.00 261.00 150.00
C 264.25 139.12 270.10 134.01 273.77 122.77 C 277.44 111.53 295.72 114.47 307.00 115.00 C 318.28 115.53 325.31 121.84 332.92 130.08 C 340.52 138.33 341.14 151.62 341.00 163.00 C 340.86 174.38 340.25 185.85 332.75 194.75 C 325.25 203.65 317.66 207.21 306.33 209.33 C 295.00 211.45 277.10 207.99 266.00 210.00 C 254.90 212.01 250.29 221.91 240.00 225.00 Z"/>
</g>
<g fill="#E7E7E7" fill-opacity="0.85" stroke="None">
<path d="
M 157.00 158.00 
C 157.04 162.40 157.08 169.66 157.00 174.00
C 157.63 189.03 166.10 204.07 180.00 210.00
C 179.15 218.90 176.90 221.42 175.93 230.93 C 174.95 240.44 181.87 234.94 187.00 232.00
C 187.24 231.70 186.39 231.31 188.09 230.08 C 189.79 228.85 190.22 230.94 190.00 231.00
C 196.88 227.14 203.27 223.80 209.25 218.25 C 215.22 212.70 231.33 217.84 237.23 214.23 C 243.13 210.62 244.32 197.44 247.74 192.74 C 251.16 188.05 258.59 174.23 252.00 172.00
C 242.86 176.59 229.69 172.72 219.00 174.00
C 218.49 172.60 219.81 171.85 221.00 172.00
C 221.98 169.48 223.13 168.85 225.00 167.00
C 232.49 159.58 240.52 148.61 246.23 140.23 C 251.94 131.85 263.96 122.68 266.00 113.00
C 264.30 108.17 250.51 111.59 245.00 111.00 C 239.49 110.41 228.44 110.68 222.00 111.00 C 215.56 111.32 206.29 109.93 200.00 110.00
C 176.12 115.23 159.18 133.21 157.00 158.00
M 212.00 176.00 
C 214.20 179.88 227.00 175.44 231.00 177.00 C 235.00 178.56 247.87 174.39 248.00 179.00
C 248.30 189.51 234.00 199.21 234.00 210.00
C 212.59 204.68 198.55 220.21 182.00 229.00
C 183.42 221.62 185.70 214.46 187.00 207.00
C 157.64 195.94 156.35 154.05 173.00 132.00
C 174.98 129.33 177.39 126.94 180.00 125.00
C 202.29 108.43 232.27 117.11 259.00 115.00
C 243.71 135.60 226.54 155.19 212.00 176.00 Z"/>
</g>
<g fill="#0D0D0F" fill-opacity="1.00" stroke="None">
<path d="
M 180.00 125.00 
C 177.87 126.86 174.81 129.92 173.00 132.00
C 156.35 154.05 157.64 195.94 187.00 207.00
C 185.70 214.46 183.42 221.62 182.00 229.00
C 198.55 220.21 212.59 204.68 234.00 210.00
C 234.00 199.21 248.30 189.51 248.00 179.00
C 243.72 176.60 233.64 178.79 229.00 178.00 C 224.36 177.21 211.86 180.01 212.00 176.00
C 226.54 155.19 243.71 135.60 259.00 115.00
C 232.27 117.11 202.29 108.43 180.00 125.00 Z"/>
</g>
<g fill="#0E0E10" fill-opacity="1.00" stroke="None">
<path d="
M 240.00 225.00 
C 250.29 221.91 254.90 212.01 266.00 210.00 C 277.10 207.99 295.00 211.45 306.33 209.33 C 317.66 207.21 325.25 203.65 332.75 194.75 C 340.25 185.85 340.86 174.38 341.00 163.00 C 341.14 151.62 340.52 138.33 332.92 130.08 C 325.31 121.84 318.28 115.53 307.00 115.00 C 295.72 114.47 277.44 111.53 273.77 122.77 C 270.10 134.01 264.25 139.12 261.00 150.00
C 272.33 150.00 283.67 150.00 295.00 150.00
C 278.33 175.47 255.61 198.62 240.00 225.00 Z"/>
</g>
<g fill="#6F6F70" fill-opacity="1.00" stroke="None">
<path d="
M 173.00 132.00 
C 174.81 129.92 177.87 126.86 180.00 125.00
C 177.39 126.94 174.98 129.33 173.00 132.00 Z"/>
</g>
<g fill="#565656" fill-opacity="0.18" stroke="None">
<path d="
M 157.00 174.00 
C 157.08 169.66 157.04 162.40 157.00 158.00
C 156.55 163.08 156.60 168.91 157.00 174.00 Z"/>
</g>
<g fill="#C6C6C6" fill-opacity="0.11" stroke="None">
<path d="
M 221.00 172.00 
C 221.94 171.78 223.04 172.13 224.00 172.00
C 221.33 171.30 223.92 168.45 225.00 167.00
C 223.13 168.85 221.98 169.48 221.00 172.00 Z"/>
</g>
<g fill="#EEEEEE" fill-opacity="0.48" stroke="None">
<path d="
M 224.00 172.00 
C 223.04 172.13 221.94 171.78 221.00 172.00
C 219.81 171.85 218.49 172.60 219.00 174.00
C 229.69 172.72 242.86 176.59 252.00 172.00
C 247.57 170.50 241.62 172.89 237.00 172.00 C 232.38 171.11 228.35 171.40 224.00 172.00 Z"/>
</g>
<g fill="#808082" fill-opacity="1.00" stroke="None">
<path d="
M 248.00 179.00 
C 247.87 174.39 235.00 178.56 231.00 177.00 C 227.00 175.44 214.20 179.88 212.00 176.00
C 211.86 180.01 224.36 177.21 229.00 178.00 C 233.64 178.79 243.72 176.60 248.00 179.00 Z"/>
</g>
<g fill="#D4D4D4" fill-opacity="0.37" stroke="None">
<path d="
M 260.00 188.00 
C 261.98 186.46 262.80 184.85 264.00 182.00
C 262.44 183.99 261.46 185.89 260.00 188.00 Z"/>
</g>
<g fill="#E3E3E3" fill-opacity="0.62" stroke="None">
<path d="
M 330.00 205.00 
C 330.74 204.50 332.09 204.61 333.00 204.00
C 334.60 202.15 335.04 199.11 339.00 197.00
C 339.00 197.00 338.75 196.26 339.00 196.00
C 336.96 193.86 330.38 204.44 330.00 205.00 Z"/>
</g>
<g fill="#C6C6C6" fill-opacity="0.27" stroke="None">
<path d="
M 333.00 204.00 
C 334.94 202.69 337.59 198.92 339.00 197.00
C 335.04 199.11 334.60 202.15 333.00 204.00 Z"/>
</g>
<g fill="#D6D6D6" fill-opacity="0.52" stroke="None">
<path d="
M 187.00 232.00 
C 187.82 231.53 189.05 231.53 190.00 231.00
C 190.22 230.94 189.79 228.85 188.09 230.08 C 186.39 231.31 187.24 231.70 187.00 232.00 Z"/>
</g>
</svg>
