<svg version="1.1" id="Layer_1" xmlns="http://www.w3.org/2000/svg" xmlns:xlink="http://www.w3.org/1999/xlink" x="0px" y="0px"
	 width="100%" viewBox="244 126 220 220" enable-background="new 0 0 730 413" xml:space="preserve">
<path fill="#000000" opacity="1.000000" stroke="none" 
	d="
M451.952881,183.410675 
	C451.635284,182.273117 451.317688,181.135574 451.003357,179.176712 
	C449.522675,174.837692 448.797119,170.021637 446.415619,166.251663 
	C440.005249,156.103867 430.859467,149.169861 418.734680,145.262070 
	C416.732422,144.840454 414.736633,144.094986 412.726776,144.055038 
	C405.268616,143.906784 397.805359,143.948013 390.345306,144.033981 
	C389.223602,144.046906 388.109039,144.676895 386.647125,145.651596 
	C382.359039,155.105042 378.070923,164.558502 373.359467,174.371613 
	C373.236908,174.910812 373.114319,175.449997 372.995453,176.488251 
	C372.995453,176.488251 372.966217,176.986465 372.547180,177.207642 
	C372.285126,177.402390 372.100922,177.654114 371.949554,178.485062 
	C371.930573,178.658752 371.911591,178.832458 371.383118,179.442032 
	C369.787781,182.577545 368.192444,185.713058 366.516693,189.006592 
	C379.705750,189.006592 391.839844,189.006592 403.968689,189.734955 
	C403.493927,190.756836 403.199646,191.923920 402.514038,192.776184 
	C399.032288,197.104340 395.371674,201.289322 391.915039,205.636841 
	C378.030945,223.099426 364.128418,240.548355 350.397339,258.130920 
	C346.959839,262.532684 344.135803,267.413513 341.029785,272.074158 
	C341.456482,272.474030 341.883179,272.873932 342.309845,273.273804 
	C347.815552,269.776825 353.300171,266.246063 358.832458,262.791656 
	C365.328552,258.735474 371.285522,253.751038 379.977081,254.846176 
	C386.040833,255.610199 392.299896,254.662979 398.435730,255.050293 
	C410.657410,255.821808 422.056519,253.546707 432.598755,247.190750 
	C443.634583,240.537201 449.664825,230.769577 451.831299,217.711777 
	C451.858063,206.519730 451.884796,195.327698 451.952881,183.410675 
M304.019501,145.322662 
	C297.740509,147.181458 291.023071,148.168106 285.264893,151.062897 
	C268.119446,159.682343 258.700226,174.365067 255.021835,192.908783 
	C252.799942,204.109818 253.173416,215.423721 256.021820,226.356812 
	C258.800354,237.021622 266.008362,244.754303 275.717834,249.931534 
	C280.107300,252.272064 281.899902,254.992081 280.253815,260.246979 
	C278.217926,266.746307 277.172882,273.556000 275.432220,281.443939 
	C282.064972,276.734924 287.859222,272.582581 293.696747,268.492035 
	C296.904449,266.244293 300.127045,264.007690 303.447968,261.934296 
	C307.305695,259.525696 311.037720,256.175873 315.260193,255.272888 
	C320.948486,254.056458 327.052795,254.742554 332.979187,254.701736 
	C335.652008,254.683319 338.096954,254.972412 338.955597,251.301758 
	C339.683746,248.188751 341.087402,245.181961 342.531586,242.298141 
	C346.573395,234.227463 350.830780,226.264786 354.881927,218.198654 
	C355.321106,217.324234 354.968933,216.052368 354.635223,214.158463 
	C344.201691,214.105881 333.768097,214.029984 323.334656,214.045624 
	C322.512390,214.046844 321.691132,214.684677 320.139893,214.941040 
	C319.024231,214.828583 317.908569,214.716110 316.267242,214.550659 
	C334.064148,191.745941 351.535767,169.358047 369.752472,146.617493 
	C370.633148,143.519348 368.477509,143.989456 366.685730,143.989258 
	C347.033142,143.986984 327.380554,143.962006 307.728119,144.015793 
	C306.730042,144.018539 305.733826,144.683182 304.019501,145.322662 
z"/>
<path fill="#121518" opacity="1.000000" stroke="none" 
	d="
M354.983826,214.964859 
	C354.968933,216.052368 355.321106,217.324234 354.881927,218.198654 
	C350.830780,226.264786 346.573395,234.227463 342.531586,242.298141 
	C341.087402,245.181961 339.683746,248.188751 338.955597,251.301758 
	C338.096954,254.972412 335.652008,254.683319 332.979187,254.701736 
	C327.052795,254.742554 320.948486,254.056458 315.260193,255.272888 
	C311.037720,256.175873 307.305695,259.525696 303.447968,261.934296 
	C300.127045,264.007690 296.904449,266.244293 293.696747,268.492035 
	C287.859222,272.582581 282.064972,276.734924 275.432220,281.443939 
	C277.172882,273.556000 278.217926,266.746307 280.253815,260.246979 
	C281.899902,254.992081 280.107300,252.272064 275.717834,249.931534 
	C266.008362,244.754303 258.800354,237.021622 256.021820,226.356812 
	C253.173416,215.423721 252.799942,204.109818 255.021835,192.908783 
	C258.700226,174.365067 268.119446,159.682343 285.264893,151.062897 
	C291.023071,148.168106 297.740509,147.181458 304.826111,145.312317 
	C308.094086,145.304199 310.555420,145.306427 313.158508,145.667328 
	C314.018616,146.345352 314.735748,146.940292 315.455383,146.943344 
	C329.575317,147.002838 343.695862,147.029572 357.815216,146.925568 
	C358.875214,146.917755 359.927551,145.876389 361.412109,145.220276 
	C363.884460,145.180359 365.928131,145.235626 368.047241,145.475586 
	C368.290344,145.893738 368.517792,146.015564 368.853210,146.262360 
	C368.901398,146.498978 369.007385,146.970139 369.007385,146.970154 
	C351.535767,169.358047 334.064148,191.745941 316.267242,214.550659 
	C317.908569,214.716110 319.024231,214.828583 320.974426,215.072784 
	C332.867279,215.124634 343.925537,215.044754 354.983826,214.964859 
z"/>
<path fill="#121418" opacity="1.000000" stroke="none" 
	d="
M372.966217,176.986465 
	C372.966217,176.986465 372.995453,176.488251 373.285339,176.197266 
	C373.644440,175.274841 373.713623,174.643402 373.782837,174.011948 
	C378.070923,164.558502 382.359039,155.105042 387.282562,145.416199 
	C398.308502,145.460922 408.698975,145.741058 419.089478,146.021179 
	C430.859467,149.169861 440.005249,156.103867 446.415619,166.251663 
	C448.797119,170.021637 449.522675,174.837692 450.712463,179.772186 
	C450.263428,181.260300 450.105255,182.152924 449.694336,183.298767 
	C449.873871,185.363342 450.306213,187.174713 450.839966,189.381409 
	C450.876892,190.855774 450.812347,191.934830 450.400208,193.133774 
	C448.677185,195.973145 447.622864,198.664154 450.841888,201.357086 
	C450.879730,202.490280 450.813324,203.252197 450.386475,204.144379 
	C448.711731,207.572632 447.646729,210.852859 450.789978,214.181870 
	C450.913483,215.688599 450.954132,216.852814 450.994812,218.017014 
	C449.664825,230.769577 443.634583,240.537201 432.598755,247.190750 
	C422.056519,253.546707 410.657410,255.821808 398.435730,255.050293 
	C392.299896,254.662979 386.040833,255.610199 379.977081,254.846176 
	C371.285522,253.751038 365.328552,258.735474 358.832458,262.791656 
	C353.300171,266.246063 347.815552,269.776825 342.309845,273.273804 
	C341.883179,272.873932 341.456482,272.474030 341.029785,272.074158 
	C344.135803,267.413513 346.959839,262.532684 350.397339,258.130920 
	C364.128418,240.548355 378.030945,223.099426 391.915039,205.636841 
	C395.371674,201.289322 399.032288,197.104340 402.514038,192.776184 
	C403.199646,191.923920 403.493927,190.756836 404.143616,189.138062 
	C402.952484,188.277924 401.593903,187.963928 400.218994,187.760223 
	C394.293121,186.882217 387.709991,190.963226 382.348358,184.670944 
	C380.989044,183.075714 377.007050,183.715271 374.146057,183.316193 
	C373.541168,182.159286 372.716888,180.582718 371.892609,179.006149 
	C371.911591,178.832458 371.930573,178.658752 372.176147,178.107117 
	C372.659058,177.533600 372.846893,177.286026 372.966217,176.986465 
z"/>
<path fill="#07080B" opacity="1.000000" stroke="none" 
	d="
M371.637878,179.224091 
	C372.716888,180.582718 373.541168,182.159286 374.146057,183.316193 
	C377.007050,183.715271 380.989044,183.075714 382.348358,184.670944 
	C387.709991,190.963226 394.293121,186.882217 400.218994,187.760223 
	C401.593903,187.963928 402.952484,188.277924 404.146240,188.773880 
	C391.839844,189.006592 379.705750,189.006592 366.516693,189.006592 
	C368.192444,185.713058 369.787781,182.577545 371.637878,179.224091 
M371.487976,183.569687 
	C371.487976,183.569687 371.439331,183.478653 371.487976,183.569687 
z"/>
<path fill="#E4E4E5" opacity="1.000000" stroke="none" 
	d="
M313.016754,145.308670 
	C310.555420,145.306427 308.094086,145.304199 305.184753,145.170792 
	C305.733826,144.683182 306.730042,144.018539 307.728119,144.015793 
	C327.380554,143.962006 347.033142,143.986984 366.685730,143.989258 
	C368.477509,143.989456 370.633148,143.519348 369.379944,146.793823 
	C369.007385,146.970139 368.901398,146.498978 368.971802,145.985748 
	C368.685394,145.411972 368.328583,145.351425 367.971802,145.290894 
	C365.928131,145.235626 363.884460,145.180359 360.950928,145.138397 
	C344.379608,145.204010 328.698181,145.256348 313.016754,145.308670 
z"/>
<path fill="#E4E4E5" opacity="1.000000" stroke="none" 
	d="
M451.413025,217.864395 
	C450.954132,216.852814 450.913483,215.688599 450.883728,213.803497 
	C450.845367,210.059769 450.796112,207.036942 450.746887,204.014114 
	C450.813324,203.252197 450.879730,202.490280 450.928955,200.921234 
	C450.857147,197.747345 450.802490,195.380615 450.747864,193.013870 
	C450.812347,191.934830 450.876892,190.855774 450.920654,188.972168 
	C450.939148,186.779907 450.978424,185.392212 451.242676,184.027008 
	C451.467651,184.049500 451.911560,184.135651 451.911560,184.135651 
	C451.884796,195.327698 451.858063,206.519730 451.413025,217.864395 
z"/>
<path fill="#FFFFFF" opacity="1.000000" stroke="none" 
	d="
M354.809509,214.561661 
	C343.925537,215.044754 332.867279,215.124634 321.339172,215.115601 
	C321.691132,214.684677 322.512390,214.046844 323.334656,214.045624 
	C333.768097,214.029984 344.201691,214.105881 354.809509,214.561661 
z"/>
<path fill="#E4E4E5" opacity="1.000000" stroke="none" 
	d="
M418.912079,145.641632 
	C408.698975,145.741058 398.308502,145.460922 387.454590,145.101105 
	C388.109039,144.676895 389.223602,144.046906 390.345306,144.033981 
	C397.805359,143.948013 405.268616,143.906784 412.726776,144.055038 
	C414.736633,144.094986 416.732422,144.840454 418.912079,145.641632 
z"/>
<path fill="#383A3B" opacity="1.000000" stroke="none" 
	d="
M451.932220,183.773163 
	C451.911560,184.135651 451.467651,184.049500 451.000977,183.954086 
	C450.338531,183.587631 450.142822,183.316605 449.947113,183.045563 
	C450.105255,182.152924 450.263428,181.260300 450.710815,180.182831 
	C451.317688,181.135574 451.635284,182.273117 451.932220,183.773163 
z"/>
<path fill="#07080B" opacity="1.000000" stroke="none" 
	d="
M373.571136,174.191772 
	C373.713623,174.643402 373.644440,175.274841 373.283508,175.947754 
	C373.114319,175.449997 373.236908,174.910812 373.571136,174.191772 
z"/>
<path fill="#07080B" opacity="1.000000" stroke="none" 
	d="
M372.756714,177.097046 
	C372.846893,177.286026 372.659058,177.533600 372.198669,177.846008 
	C372.100922,177.654114 372.285126,177.402390 372.756714,177.097046 
z"/>
<path fill="#07080B" opacity="1.000000" stroke="none" 
	d="
M313.158508,145.667328 
	C328.698181,145.256348 344.379608,145.204010 360.522247,145.233582 
	C359.927551,145.876389 358.875214,146.917755 357.815216,146.925568 
	C343.695862,147.029572 329.575317,147.002838 315.455383,146.943344 
	C314.735748,146.940292 314.018616,146.345352 313.158508,145.667328 
z"/>
<path fill="#383A3B" opacity="1.000000" stroke="none" 
	d="
M368.047241,145.475586 
	C368.328583,145.351425 368.685394,145.411972 368.923584,145.749130 
	C368.517792,146.015564 368.290344,145.893738 368.047241,145.475586 
z"/>
<path fill="#07080B" opacity="1.000000" stroke="none" 
	d="
M450.386475,204.144379 
	C450.796112,207.036942 450.845367,210.059769 450.800842,213.460968 
	C447.646729,210.852859 448.711731,207.572632 450.386475,204.144379 
z"/>
<path fill="#07080B" opacity="1.000000" stroke="none" 
	d="
M450.400208,193.133774 
	C450.802490,195.380615 450.857147,197.747345 450.824707,200.549957 
	C447.622864,198.664154 448.677185,195.973145 450.400208,193.133774 
z"/>
<path fill="#07080B" opacity="1.000000" stroke="none" 
	d="
M449.694336,183.298767 
	C450.142822,183.316605 450.338531,183.587631 450.776001,183.931580 
	C450.978424,185.392212 450.939148,186.779907 450.819214,188.576843 
	C450.306213,187.174713 449.873871,185.363342 449.694336,183.298767 
z"/>
<path fill="#121418" opacity="1.000000" stroke="none" 
	d="
M371.463654,183.524170 
	C371.439331,183.478653 371.487976,183.569687 371.463654,183.524170 
z"/>
</svg>
